<svg width="30px" height="30px" viewBox="0 0 0.6 0.6" xmlns="http://www.w3.org/2000/svg"><path fill-rule="evenodd" clip-rule="evenodd" d="M0.299 0A0.299 0.299 0 0 0 0 0.299c0 0.132 0.086 0.244 0.204 0.284 0.015 0.002 0.02 -0.007 0.02 -0.015v-0.051C0.141 0.536 0.123 0.477 0.123 0.477 0.11 0.442 0.09 0.433 0.09 0.433c-0.028 -0.018 0.002 -0.018 0.002 -0.018 0.029 0.002 0.046 0.031 0.046 0.031 0.028 0.046 0.07 0.033 0.086 0.026a0.065 0.065 0 0 1 0.018 -0.041c-0.066 -0.007 -0.136 -0.033 -0.136 -0.148A0.114 0.114 0 0 1 0.137 0.202C0.136 0.197 0.124 0.165 0.141 0.125c0 0 0.026 -0.007 0.083 0.031C0.247 0.148 0.273 0.147 0.299 0.147s0.051 0.004 0.075 0.009c0.057 -0.038 0.083 -0.031 0.083 -0.031 0.017 0.041 0.005 0.071 0.004 0.079a0.118 0.118 0 0 1 0.031 0.081c0 0.115 -0.07 0.14 -0.136 0.147 0.011 0.009 0.02 0.028 0.02 0.055v0.083c0 0.007 0.005 0.017 0.02 0.015A0.299 0.299 0 0 0 0.6 0.299 0.302 0.302 0 0 0 0.299 0z" fill="#000000"/></svg>